<?xml version="1.0" encoding="UTF-8"?>
<!DOCTYPE svg PUBLIC "-//W3C//DTD SVG 1.1//EN" "http://www.w3.org/Graphics/SVG/1.1/DTD/svg11.dtd">
<!-- Creator: CorelDRAW 2019 (64-Bit Versión de evaluación) -->
<svg xmlns="http://www.w3.org/2000/svg" xml:space="preserve" width="210mm" height="297mm" version="1.1" style="shape-rendering:geometricPrecision; text-rendering:geometricPrecision; image-rendering:optimizeQuality; fill-rule:evenodd; clip-rule:evenodd"
viewBox="0 0 21000 29700"
 xmlns:xlink="http://www.w3.org/1999/xlink"
 xmlns:xodm="http://www.corel.com/coreldraw/odm/2003">
 <defs>
  <style type="text/css">
   <![CDATA[
    .fil0 {fill:#6E472A;fill-rule:nonzero}
    .fil1 {fill:#7F553D;fill-rule:nonzero}
    .fil2 {fill:#82B71C;fill-rule:nonzero}
    .fil3 {fill:#90C125;fill-rule:nonzero}
    .fil4 {fill:#96C639;fill-rule:nonzero}
    .fil5 {fill:#A9D146;fill-rule:nonzero}
   ]]>
  </style>
 </defs>
 <g id="Capa_x0020_1">
  <metadata id="CorelCorpID_0Corel-Layer"/>
  <path class="fil0" d="M9681.43 12527.57c0,0 28.72,647.17 287.59,877.25 258.9,230.12 762.32,560.92 762.32,560.92 0,0 201.36,2315.52 -791,2746.97 0,0 1236.8,-115.11 2171.59,-57.6 0,0 -546.45,-1955.84 -402.66,-2574.3 0,0 834.21,-445.87 1035.51,-719.13 201.33,-273.2 647.24,-1136.12 647.24,-1136.12l-244.54 0c0,0 -431.52,834.17 -546.49,949.18 -115.04,115.07 -1064.26,431.48 -1064.26,431.48 0,0 345.15,-388.41 517.73,-704.74 172.58,-316.41 258.84,-862.93 258.84,-862.93l-158.19 0c0,0 -273.23,661.53 -388.3,819.78 -115.08,158.22 -503.34,532.13 -503.34,532.13 0,0 -517.78,-373.91 -618.46,-546.52 -100.65,-172.58 -373.94,-1021.12 -373.94,-1021.12l-186.98 0 345.2 1107.41 604.02 575.24c0,0 -604.06,-143.79 -762.24,-215.66 -158.19,-71.93 -445.81,-805.39 -445.81,-805.39l-143.83 43.15z"/>
  <path class="fil1" d="M10888.04 13954.17c0,0 0,1994.81 -446.86,2543.73 0,0 459.21,-86.04 629.42,-74.29l87.88 -2469.44 -270.44 0z"/>
  <path class="fil2" d="M10673.73 12254.34c0,0 -1092.98,643.43 -2099.74,156.28 -1006.75,-487.15 -1359.07,-1910.92 -690.31,-2946.43 463.51,-717.69 1380.66,-891.68 1380.66,-891.68 0,0 -361.77,-1121.8 1027.19,-1754.58 1389.02,-632.81 2640.26,632.78 2668.97,1193.66 0,0 1279.95,-527.72 2214.81,608.4 934.83,1136.19 581.1,3346.91 -1265.59,3619.89 0,0 -733.49,906.07 -1797.79,862.86 -1064.22,-43.04 -1438.2,-848.4 -1438.2,-848.4z"/>
  <path class="fil3" d="M9681.43 7803.1c100.02,-315.1 488.95,-711.98 1244.07,-798.23 755.05,-86.29 1682.65,496.14 1747.38,1359.07 0,0 776.57,-237.27 1488.51,0 711.91,237.32 1013.92,1079.5 970.81,1834.1 -43.18,754.69 -496.21,323.21 -539.36,-129.79 -43.11,-453.04 -237.31,-1019.95 -906.07,-1167.98 -668.69,-147.99 -1186.47,240.35 -1617.91,-665.73 -431.49,-906.03 -862.97,-819.78 -1208.09,-776.64 -345.19,43.11 -1323.13,798.2 -1179.34,345.2z"/>
  <path class="fil4" d="M10388.89 12655.56c0,0 740.1,435.68 1421.84,105.9 681.74,-329.88 920.33,-1294.02 467.47,-1995.17 -313.84,-486.06 -934.9,-603.85 -934.9,-603.85 0,0 244.97,-759.67 -695.57,-1188.16 -940.54,-428.44 -1787.81,428.49 -1807.32,808.36 0,0 -866.7,-357.4 -1499.73,411.97 -633.02,769.34 -393.45,2266.39 857.01,2451.24 0,0 496.6,613.45 1217.29,584.31 720.73,-29.25 973.91,-574.6 973.91,-574.6z"/>
  <path class="fil5" d="M11060.87 9641.39c-67.7,-213.33 -331.09,-482.04 -842.44,-540.46 -511.24,-58.49 -1139.36,335.95 -1183.21,920.26 0,0 -525.93,-160.69 -1008,0 -482,160.65 -686.54,731.02 -657.36,1242.02 29.24,510.9 335.98,218.83 365.23,-87.91 29.24,-306.85 160.69,-690.7 613.51,-790.86 452.9,-100.33 803.46,162.67 1095.59,-450.85 292.17,-613.55 584.38,-555.13 818.16,-525.92 233.68,29.21 895.92,540.53 798.52,233.72z"/>
 </g>
</svg>
